<svg version="1.2" xmlns="http://www.w3.org/2000/svg" viewBox="0 0 1000 1000" width="1000" height="1000"><style>.a{fill:transparent}.b{fill:#eed1c6}.c{fill:#505d5e}.d{fill:#f3bbaa}.e{fill:#f37d59}.f{fill:#87806e}.g{fill:#5b514f}.h{fill:#5f322c}.i{fill:#3d3541}.j{fill:#dd9483}.k{fill:#3d3542}.l{fill:#72a0af}.m{fill:#a57474}.n{fill:#c6b1ab}.o{mix-blend-mode:multiply;fill:none;stroke:#72a0af;stroke-miterlimit:10;stroke-width:2}.p{fill:#617693}.q{opacity:.5;mix-blend-mode:multiply;fill:#f3bbaa}</style><path class="a" d="m1000 1000h-1000v-1000h1000z"/><path class="b" d="m897.9 827c0 3.9-178.1 7.1-397.9 7.1-219.8 0-397.9-3.2-397.9-7.1 0-4 178.1-7.2 397.9-7.2 219.8 0 397.9 3.2 397.9 7.2z"/><path class="c" d="m218 310.1c0 0-73.9 111.3-63.3 129.3 10.5 18 51.2 25.2 55.6 18.4 2.5-4 25.1-62.1 26.5-102.6 1-29.2-18.8-45.1-18.8-45.1z"/><path class="d" d="m371.5 417.8l-3.7 15.6-18.3 49 5.2 16.6c0 0-4.6 11.2-7.1 12.1-2.2 0.9-12.2 3.2-11.8 1.1 0.9-4.3 7.5-9 7.5-13 0-4-4.8-11.9-4.8-11.9l2.4-7.6 2-12.8 9.8-49.1z"/><path class="e" d="m210.4 463.5l-2 35.8q-0.2 4.6 0.5 9.2l16.7 102.3-3.4 207.5h12.2l43.4-221.7 11.2-131.7z"/><path class="e" d="m271.7 463.5l12.8 145.1-9.6 209.7h14.3l43.5-221.7 6.8-131.7z"/><path class="f" d="m339.1 308l-18.1-35.7-19.8-6.9-60.8 17.8-3.6 52.1-41.6 143.7 24.2 7.9c14.8 3.7 30 5.1 45.1 4.2 26-1.6 65.7-4.3 74.1-6.9l19.5-71.4z"/><path class="f" d="m268.6 262.1l-45.6 12c-7.2 1.9-13.3 6.7-16.9 13.3-13.1 24-44.6 78.9-44.6 85.7 0 6.9 12 36.4 12 36.4l47.1 14.6 15.2-53.8-11.1-7.8 13.2-24.4 46.8 29.4 3.2-94.7z"/><path class="g" d="m330.4 194.8l-0.5-2.1 13.1-3.2 0.5 2.1z"/><path class="h" d="m327.9 169.1c0 0 7 5.7 7.2 19.6l-4.1-2.4-3.1-11.2"/><path class="h" d="m335.4 189.1l-4.6-2.6-3.2-11.3 0.5-0.2 3.1 11.1 3.6 2.1c-0.3-13.2-7-18.8-7.1-18.9l0.3-0.4c0.1 0.1 7.1 5.9 7.3 19.8z"/><path class="i" d="m280.7 173.9c-2.8 1.9-2.5 8.9-3 12.2-0.8 6 1.4 18.2 4.9 23.1 0.6 0.8 2.7-0.3 3.7-0.3 1.9 0.2 2.8-2.3 3-4.3q1.2-11.3 2.5-22.7"/><path class="i" d="m280.1 173.3c-3.5 3.6-3.3 11.1-3.4 15.7 0 5.8 0.8 14.8 4.5 19.5 2 2.5 5.6 2.3 7.8-0.4 1.6-2 1.4-6.3 1.6-8.5q1-8.9 2-17.7c0.1-1-1.5-1-1.6 0-0.7 5.9-1.3 11.8-2 17.7-0.3 2.8 0.2 8.9-4.2 8.8-3.1-0.1-3.6-3.6-4.4-5.9-1.4-4.6-2.2-9.5-2-14.2 0.1-4.1-0.2-10.8 2.8-13.8 0.8-0.8-0.4-1.9-1.1-1.2z"/><path class="d" d="m288.2 217.7c0 0-2.3 37.3-19.6 44.4 0 0 7 34.4 36.9 28.5 30-5.8 7.2-24.5 7.2-24.5 0 0-1.4-12.5 6.1-18.8z"/><path class="d" d=""/><g style="opacity:.7;mix-blend-mode:multiply"><path class="d" d="m318.8 247.3l-30.6-29.6c0 0-4.7 41.1 24.5 47.7-0.2-2.7-0.3-12.6 6.1-18.1z"/></g><path class="d" d="m333.1 180.2c1.8 2.3 2.8 5.1 3.2 8 0.7 5.6 1.9 22 2.6 29.2 1 10.4-1.2 31.7-11.5 34.1-8.3 1.9-26.7 1.7-36-21.6-9.3-23.3-3.2-44.2-3.2-44.2 0 0 11.1-13.3 23-13.3 8 0 14.4-1.8 21.9 7.8z"/><path class="h" d="m335 193c0.9-1.2-6.9-5.9-9.6-3.9-2.8 2.1-0.8 4.6 0.6 3.3 2.2-1.8 8.5 1.4 9 0.6z"/><path class="h" d="m301.3 196.6c-1.1-1 6-7.6 9.4-6.3 3.4 1.3 1.9 4.3 0 3.5-2.7-1.3-8.6 3.4-9.4 2.8z"/><path class="h" d="m331 198.7c0 0-1-3.3-2.9-2.5-1.9 0.8-2.7 4-0.4 5.4 2.3 1.4 3.4-1.2 3.3-2.9z"/><path class="h" d="m310.2 200.2c0 0-0.9-3.3-2.9-2.5-1.9 0.8-2.6 4-0.4 5.3 2.3 1.4 3.4-1.2 3.3-2.8z"/><path class="j" d="m319.8 198.3c0 0 0.1 5.6 4.5 9.8 2.8 2.6 9.3 6.7 1.6 9.2-9.5 3.2-6.1-19-6.1-19z"/><path class="i" d="m331 178.7c2.1-1.9 2.5-4 2.4-6.4q-0.1 0-0.2-0.1c-1.6-2.1-3.6-4.1-4.5-6.7-0.4-1-0.6-2.2-1.4-3-1.5-1.5-4.2-0.8-5.8-2.2-0.4-0.4-0.8-0.9-1.2-1.3-0.8-0.7-1.9-1-3-1.3-4.3-1.1-8.7-1.7-13.1-1.9-2.5 0-6.5 0-10.4 2.7-8.3-3.5-14.5 6.1-19.3 12.9-0.6 0.9-1.3 1.9-1.5 3.1-0.3 1.3 0.1 2.7 0.6 4.1 1.9 5.3 9.6 7.8 15 9.5 5.4 1.6 12-0.2 15.2-4.8 0.7-1.2 1.4-2.5 2.6-3.1 3.5-2 7.1 3.4 11.1 3.2 1.7-0.2 3.1-1.3 4.7-1.8 1.3-0.5 7.4-1.7 8.8-2.9z"/><path fill-rule="evenodd" class="g" d="m305.2 207.7c-6.7-0.3-12.1-5.8-12.1-12.2 0-6.4 5.4-11.4 12.1-11 6.6 0.3 12 5.8 12 12.2 0 6.4-5.4 11.3-12 11zm0-21.7c-5.8-0.2-10.5 4-10.5 9.6 0 5.5 4.7 10.3 10.5 10.5 5.7 0.3 10.4-4 10.4-9.5 0-5.5-4.7-10.3-10.4-10.6z"/><path fill-rule="evenodd" class="g" d="m336.1 206.6c-6.5 1.2-13.1-2.8-14.6-9.1-1.5-6.2 2.6-12.3 9.2-13.5 6.5-1.3 13 2.8 14.5 9.1 1.5 6.2-2.6 12.3-9.1 13.5zm-5.1-21.1c-5.6 1.1-9.2 6.3-7.9 11.7 1.3 5.4 7 8.9 12.6 7.9 5.7-1.1 9.3-6.4 8-11.7-1.3-5.4-7-8.9-12.7-7.9z"/><path class="g" d="m316.8 195.5l-1.3-1.7c1.4-1 4.7-2.4 7.2 0l-1.4 1.6c-1.9-1.8-4.5 0.1-4.5 0.1z"/><path class="g" d="m282.1 204.3l-1.1-1.8 12.5-7.3 1 1.8z"/><path class="f" d="m321 272.8l19.8 7.6c3.1 1.2 5.9 3.1 8.1 5.6l14 15.7c3.1 3.4 4.9 7.8 5.2 12.4l5.8 93.3q0.1 2.1-0.2 4.3l-4.6 30.5h-29.6l-9.4-74z"/><path class="d" d="m291.8 215.6c0 0-2.8 4.3-6.5 7-3.7 2.8-11.1-8.6-12.3-19.2-1.3-10.7 14.9-1.4 14.9-1.4z"/><path class="h" d="m310.2 231.9c0 0 5.9 0.9 11.8 0 5.9-1 8.1-5.5 8.1-5.5 0 0 0.7 5.7-6.1 8.3-6.5 2.5-13.8-2.8-13.8-2.8z"/><path class="c" d="m231.4 271.9c0 0 13.2 21.3 15.9 35.1 0 0 23.7-4.3 25.6-5.6 1.9-1.3-4.3-29.5-4.3-29.5l-4.5-8.6z"/><path class="d" d="m225.7 375.8l36.4-14.9 4.5 12.7-48.6 30.3v-19.4z"/><path class="d" d="m259.1 364.8l3-3.9 1.3-5.2 8.2-11.1c0 0 9.4-0.2 10.1 0.4 2.2 1.7-5.8 3.6-5.8 3.6l-12.9 20.2z"/><path class="c" d="m252.4 301.4l16.2 55.8 1.2 16.1-56 55.7 4.2 7.1 60.3-58v-22.5l-11.7-59.2z"/><path class="d" d="m266.6 373.6h6.7c0 0 10.3-6.3 11.9-10.6 1.1-3.1-1-15.8-1-15.8 0 0-10.7 0.5-11.6 1.6-1 1.1-10 18.4-10 18.4z"/><path class="d" d="m342.2 483.4l-3.7 3.9c0 0-4.8 9.7-4.3 12.1 0.6 2.3 8.7-8 8.7-8z"/><path class="k" d="m221 806.6l15.5 1.5 6.1 7.2 18.7 9.7 1.7 3.8-22.5-2-20.7-3.1z"/><path class="k" d="m274.7 810.5l15.5 1.2 6.3 7.1 18.7 9.4 1.8 3.8-22.5-1.7-20.7-2.7z"/><path class="c" d="m193.7 420.5l25.7 5.8 1.1 7.4-26.8 19.9z"/><g style="opacity:.3;mix-blend-mode:multiply"><path class="c" d="m231.4 271.9c0 0 13.2 21.3 15.9 35.1 0 0 23.7-4.3 25.6-5.6 1.9-1.3-4.3-29.5-4.3-29.5l-4.5-8.6z"/></g><g style="opacity:.3;mix-blend-mode:multiply"><path class="c" d="m193.7 420.5l25.7 5.8 1.1 7.4-26.8 19.9z"/></g><g style="opacity:.5;mix-blend-mode:multiply"><path class="f" d="m340.6 442.2l-2.2-0.1 3.5-60.7-1.7-54.8 2.1-0.1 1.7 54.9z"/></g><g style="opacity:.5;mix-blend-mode:multiply"><path class="f" d="m225.7 363l-2-0.9 17.6-36 2 0.9z"/></g><g style="opacity:.7"><path class="d" d="m225.7 375.8l-4 10.3 2 14.3-5.7 3.5v-19.4z"/></g><g style="opacity:.7;mix-blend-mode:multiply"><path class="d" d="m350.4 442.2l-1.8 6.9 15.9-6.9z"/></g><path class="f" d="m840.5 790.9l-33.6-204.4 13.3-127.5-90.1-7.1 26.2 155.3 72.2 183.7z"/><path class="f" d="m690.8 457l-21.8 114.7 9.6 233h11.4l34.2-224.6 54.2-111.4z"/><path class="l" d="m676.8 335.5c2.1-24.5 0.8-49-5.2-73.5-13 7-28.9 16.1-31.2 20.1-2.9 4.8-6.2 47.5-8.1 75-0.6 8.8 2.2 17.5 7.7 24.4l40.5 50.9 12.2-15.7z"/><path class="l" d="m777.7 310l-3.2 0.9c-0.7-5.3-1.2-10.8-1.9-16.2-2.1-14-9.6-28-3.5-41.4-17.2-4-33.5-7.3-33.5-7.3l-46.5 7c0 0-8 4-17.5 9 3.3 13.2-0.9 27.8-0.2 40.9 0.7 12.4 2 24.5 2.4 36.5l-6.5 1.8 5 25.9q-0.4 2.6-0.9 5.2l2 0.1 13.5 68.9-2.8 26.1 49.6 6 91.7-6v-37.8-55.5z"/><path class="d" d="m689.8 224.4c0 0 10.3 0.2 7.1 17.5-0.6 3.5-2.6 6.6-5.5 8.6-1.5 1.1-3.5 2.3-6.1 3.8 0 0-2.9 24.9 53.9-7.6l-14.5-8.7c0 0-12.5-13.1-10.5-32.9z"/><g style="opacity:.7;mix-blend-mode:multiply"><path class="d" d="m716.9 224.8c-2-5.3-3.4-12-2.7-19.7l-14.2 11.7-8.3 10.2c2.7 2.2 6.6 6.5 5.4 13.5 5.8-2.3 16.4-8.9 19.8-15.7z"/></g><path class="i" d="m733.7 165.6c0.7-4.7-3.5-8.7-7.3-11.7-3.3-2.5-6.6-5.1-10.1-7.4-3.5-2.3-7.3-4.3-11.3-6-4.2-1.7-8.9-3.1-13.4-2.1-6.8 1.4-11.8 7.8-18.6 9.2q-0.8 0.2-1.6 0.3-1.2 1.7-2.4 3.5c-3.2 4.7-4.4 9.3-6 14.7-1.7 5.9-2.4 10.2-0.7 16.1 1.7 5.9 2.4 11 1.5 17.1 0.4 1.5 1.4 2.9 2.9 2.8 1.5-0.1 2.4-1.4 3.2-2.6 2.4-3.2 5.9-5.7 9.7-7 0.7-0.2 1.5-0.4 2.2-0.2 1.1 0.4 1.6 1.6 2.4 2.4 2.6 2.5 7.3 0 10.3 2 1 0.7 1.7 1.8 2.4 2.8 3 4.1 8 6.6 13.1 6.4 5.1-0.2 10-3 12.7-7.3l-0.4-1c-1.4-2.8 0.4-6.3 2.5-8.7 2.1-2.4 4.8-4.6 5.4-7.8 0.4-2.3-0.4-4.7 0.1-7.1 0.5-2.9 2.9-5.4 3.4-8.4z"/><path class="d" d="m669.3 167.7c-1.8 2.3-2.9 5.1-3.2 7.9-0.7 5.6-1.9 22.1-2.6 29.3-1.1 10.3 11.5 34.1 21.8 36.5 8.3 1.9 16.3-0.7 25.6-24 9.4-23.3 3.3-44.2 3.3-44.2 0 0-11.1-13.3-23.1-13.3-8 0-14.3-1.8-21.8 7.8z"/><path class="d" d="m713.1 193.2c0 0 7.1-10.5 12.5-3.8 5.4 6.6-8.9 34.7-15.8 13.5-6.9-21.2 3.3-9.7 3.3-9.7z"/><path class="m" d="m673.6 216.9l20-2c0 0-0.5 7.7-7.6 9.3-7.1 1.5-12.4-7.3-12.4-7.3z"/><path class="a" d="m676.9 216.6c0 0 2 3.7 7.7 3 5.7-0.7 6.7-4.5 6.7-4.5z"/><path class="i" d="m667.3 180.5c-0.8-1.2 6.9-5.9 9.7-3.9 2.8 2.1 0.8 4.6-0.7 3.3-2.2-1.8-8.4 1.4-9 0.6z"/><path class="i" d="m701 184.1c1.2-1-5.9-7.6-9.3-6.3-3.4 1.3-1.9 4.3-0.1 3.4 2.8-1.2 8.7 3.5 9.4 2.9z"/><path class="i" d="m671.4 186.2c0 0 0.9-3.3 2.9-2.5 1.9 0.8 2.6 4 0.4 5.4-2.3 1.3-3.5-1.2-3.3-2.9z"/><path class="i" d="m692.2 187.7c0 0 0.9-3.3 2.8-2.5 2 0.7 2.7 3.9 0.4 5.3-2.2 1.4-3.4-1.2-3.2-2.8z"/><path class="j" d="m683 189.3c0 0-0.2 5.6-4.6 9.7-2.8 2.7-9.2 6.8-1.5 9.3 9.4 3.1 6.1-19 6.1-19z"/><path class="n" d="m683.1 330.2l87-17 36.6 111.5-90.4 19.3z"/><path class="c" d="m677.4 338.1l87-17 36.6 111.5-90.4 19.3z"/><path class="d" d="m714.6 412l-13.7 2.7c0 0-6.7-3.8-8.3-5.6-1.7-1.9-1.2-11.6-0.8-12 0.5-0.5 6 2.8 9.4 3.3 3.4 0.4 10.6 0.4 10.6 0.4z"/><path class="d" d="m701.2 402c1.8 0.1-1-4.6-4-6.3-2.4-1.4-4.9-2.4-3.6 0 1.3 2.5 2.4 4.2 2.4 4.2"/><path class="d" d="m711 423.2c-1.9-0.3-14.9-0.6-13-2.4 0.6-0.6 3.6-2.9 3.2-4.1 0 0-0.9-0.2-7.4 2-1 0.3-2 0.4-3 0.4l-6.4 8.2 2.7 1.1 3.8 2.9c0 0 8 3 11.5 3 3.4 0 7.4-5.8 7.4-5.8 0 0 3.1-5.1 1.2-5.3z"/><path class="k" d="m675.1 786.7l17.3 2.4-2.4 34.2-44.6 5c0 0 1.8-21.8 31.1-21.9z"/><path class="k" d="m820.7 773.4l17.2-2.8 7.1 33.5-42.8 16.5c0 0-2.4-20.1 25.6-28.8z"/><g style="mix-blend-mode:multiply"><path class="f" d="m744.2 542.2l-7.3-48.1 2.1-0.3 7.3 48.1z"/></g><g style="opacity:.7;mix-blend-mode:multiply"><path class="d" d="m704 399.2l-2 1.3 2 13.6 5.3-0.9z"/></g><path class="l" d="m837.8 333.4c-1.1-5.4-2.8-10.6-5.1-15.6-7.1-15-22.5-47.8-25.1-52.3-1.8-3-20.6-8-38.5-12.2-14 30.9-3.3 65.3 17.2 93.8q0.1 0.2 0.2 0.3l8 26.1-93.3 24.6 6.2 18.6 119.5-10.2c4.9-0.4 9.1-3.4 11.1-7.8l7.1-15.9c1.2-2.7 1.6-5.8 1-8.7z"/><g style="opacity:.7;mix-blend-mode:multiply"><path class="d" d="m690.8 419.1l-3.7 9.3-2.7-1.1z"/></g><path class="o" d="m792.4 374.2l8.6-2.1c0 0-27.4-47.7-30.8-63.4"/><path class="o" d="m690.8 414.1l-17.8-45.1 1.7-21.8"/><path class="d" d="m527.4 303.7c9.2-3.8-18.6 5-24.2 18-5.5 12.8 4.5 76.4 4.5 86.6 0 10.3-7.3 79.7-7.3 79.7l10.7-0.2c0 0 8.5-39.1 9.2-49.3 0.7-10.9 10-7.5 16.9-88.1z"/><g style="opacity:.7;mix-blend-mode:multiply"><path class="d" d="m502.4 354.5l13.6 14.5 0.5-15.1z"/></g><path class="c" d="m659.4 475.8c0 0 1.1-56.2-5.3-68.3-6.3-12-31.5-49-31.5-49l3.9 104z"/><path class="f" d="m627.7 449.7c0 0 31.7 18.3 31.7 26.1 0 7.7-3.2 25.7-10.6 27.4-7.4 1.6-26.2 0.3-26.2 0.3z"/><path class="c" d="m627.7 449.7c0 0 31.7 18.3 31.7 26.1 0 7.7-3.2 25.7-10.6 27.4-7.4 1.6-26.2 0.3-26.2 0.3z"/><g style="opacity:.5;mix-blend-mode:multiply"><path class="c" d="m627.7 449.7c0 0 31.7 18.3 31.7 26.1 0 7.7-3.2 25.7-10.6 27.4-7.4 1.6-26.2 0.3-26.2 0.3z"/></g><path class="l" d="m633 774.2l-14.8-149.6 23.1-91.8c1.4-5.9 1.8-11.9 1.2-17.9l-4.8-44.3-65.3 6.8-6.7 148.2 42.1 148.6z"/><path class="d" d="m590.5 501.1c0 0-6.4 10.3-7.5 7.7-1-2.7 4.6-11.3 4.6-11.3"/><path class="l" d="m559.1 774.2l4-164.6 24.5-130.6-57.6-6.3-19.5 123.6 24.6 177.9z"/><path class="e" d="m621.4 297.5c-7-4.4-36.4-11.5-36.4-11.5l-16.8 27.8-22-18.2-18.8 8.1c0 0-14.9 41.7-12 62.2 2.4 16.4 18.5 65.6 17.5 75.3-0.9 9.8-2 37.8-2 37.8l90.1-5.6 0.2 1.9 16.5-2.6-9.5-61.3 12.1-93.7c0 0-12.7-16.3-18.9-20.2z"/><path class="l" d="m530.8 301.9c0 0-11.8 42.5-12.9 50.4-0.6 4.2-1.6 13.7-2.4 21.6-0.9 8.3 0 16.6 2.6 24.6 4.8 14.3 12.2 38.1 12.7 48.4 0.8 15.3 0 56.3 0 56.3l103.3-8.6c0 0-19.8-58.9-20.5-71.5-0.7-12.6-26.7-62.6-25.8-69.7 1.2-9.6 5.3-29.4 5.3-29.4l11.3-32.8-3.7-1.1c0 0-13.1 28.8-15 39.6-1.7 9.9-7.4 25.2-7.4 25.2l-27.5 1.3-24.9-2.5 1.5-11.3 7.6-41.9z"/><g style="opacity:.5;mix-blend-mode:multiply"><path class="p" d="m523.4 387.8c0 0 35 3.2 35.8 3.2 0.8 0 20.4-1.6 20.4-1.6l9.8 39.5h-55.4z"/></g><path class="c" d="m522.2 421.6l98.9 3.9-3.5 71-101.1-7.9z"/><path class="f" d="m624.4 513.1l-116.7-7.3 12.6-67.3 107.9 0.9z"/><path class="d" d="m509.9 485.5c0 0 1.9 2.7 2.5 4.2 1.3 3.3 5 9 4.4 9.7-1.8 2.1-6.3-2.9-6.3-2.9l-2.8 12.8c0 0-6.7 6.3-11.8 3.1-1.6-1-2.1-5.8-2.1-5.8 0 0 1.2-1.9 3-5.7 1.4-2.9 3.6-12.9 3.6-12.9z"/><path class="d" d="m599.5 493.9l2.6 9.3 2.2 9.4-14.5 0.5c0 0-1.9-8.9-2.6-9.9-0.7-1 0.4-9 0.4-9z"/><path class="i" d="m522.8 238.5q1.2 14.5 0.7 28.9c-0.3 7-0.7 14.1 1.4 20.7 6.5-2.3 13.6-2.8 20.4-1.2 4.3 0.9 8.5 2.7 12.9 3.4 15 2.2 28.4-8.7 39.6-18.8 1.3-1.1 2.5-2.2 2.9-3.8 0.4-1.8-0.3-3.6-1.2-5.2-2.5-5-5.6-9.8-9.2-14.1-1.7-2.1-3.6-4.2-4.5-6.7-1.1-3-0.7-6.3-0.4-9.5 0.7-8.9 0.2-18.2-3.8-26.2-4-8-12-14.4-20.9-14.4-3.7 0-7.3 1-10.8 2.1q-6.9 2-13.8 4c-3.9 1.2-7.9 2.4-10.7 5.3-4.7 4.8-4.6 12.3-4.1 19q0.8 12.1 1.6 24.2"/><path class="d" d="m583.5 284.8c0 0-14.5-15.9-12.5-35.7l-20.5 17c0 0 15.3 3.4 6.6 23.5 0 0-1.2 3.5-10.9 6 0 0-3.8 6.5-5.3 16.1-2 12 0.6 26.6 17 20.9 16.4-5.7 33.7-44.9 33.7-44.9z"/><g style="opacity:.7;mix-blend-mode:multiply"><path class="d" d="m573.7 268.8c-2-5.3-3.5-11.9-2.7-19.7l-14.2 11.8-1.4 7.7c2.7 2.2 5.2 6.3 4.1 13.4 4.4-2.9 10-7.2 14.2-13.2z"/></g><path class="d" d="m526 212.8c-1.8 2-2.8 4.3-3.2 6.8-0.6 4.9-1.9 19.1-2.6 25.3-1 9 15.1 32.1 24.5 31.4 2.3-0.1 14.4-2.1 23-20.5 9.4-20.2 3.2-38.3 3.2-38.3 0 0-11.1-11.5-23-11.5-8 0-14.4-1.5-21.9 6.8z"/><path class="d" d="m570.2 239.6c0 0 4.4-8.7 9.2-4.2 4.8 4.5-3.3 27.5-10.7 12-7.5-15.5 1.5-7.8 1.5-7.8z"/><path class="m" d="m530.3 256.7l20-2.1c0 0-0.4 7.8-7.5 9.3-7.1 1.6-12.5-7.2-12.5-7.2z"/><path class="a" d="m533.7 256.3c0 0 1.9 3.7 7.7 3.1 5.7-0.7 6.6-4.5 6.6-4.5z"/><path class="i" d="m524.1 226.6c-0.8-1.2 6.9-5.9 9.7-3.9 2.7 2.1 0.8 4.6-0.7 3.4-2.2-1.9-8.4 1.3-9 0.5z"/><path class="i" d="m557.8 230.2c1.2-1-6-7.5-9.4-6.2-3.4 1.2-1.8 4.2 0 3.4 2.7-1.3 8.6 3.4 9.4 2.8z"/><path class="i" d="m528.2 232.3c0 0 0.9-3.3 2.8-2.5 2 0.8 2.7 4 0.4 5.4-2.2 1.4-3.4-1.2-3.2-2.9z"/><path class="i" d="m548.9 233.8c0 0 0.9-3.3 2.9-2.5 1.9 0.8 2.7 4 0.4 5.4-2.3 1.3-3.4-1.2-3.3-2.9z"/><path class="j" d="m537.6 235.4c0 0-0.1 3.6-4.5 6.2-2.8 1.7-9.3 4.3-1.6 6 9.5 2 6.1-12.2 6.1-12.2z"/><path class="i" d="m574.5 250c0 0.5-0.3 0.9-0.8 0.9-0.5 0-0.9-0.4-0.9-0.9 0-0.5 0.4-0.9 0.9-0.9 0.5 0 0.8 0.4 0.8 0.9z"/><path class="i" d="m524 211.6c-2.3 4.1 11.2-7.6 21.8-4.3 4.9 1.6 9.4 4.3 13.3 7.8 6.5 5.9 11.7 13.9 11.8 22.7 6.4-9 5.9-22.3-1.2-30.7l-11.8-6.9c0 0-24.9-4.7-33.9 11.4z"/><path class="i" d="m523.3 211.4c-0.3 0.6-0.4 0.8-0.1 1.4 0.1 0.3 0.5 0.5 0.7 0.4 5.4-0.6 9.8-4.9 15.4-5.4 15.5-1.5 29.7 15.7 30.8 30 0 0.8 1 1.1 1.4 0.4 9.5-15 3.4-32.8-13.2-38.6-11.8-4.2-28.4 1.2-34.9 11.6-0.6 0.8 0.8 1.6 1.3 0.8 14-22.1 56.6-11.6 49 17.6-0.2 0.9-1.9 5.6-2.2 5.5 0.1 0-1.6-3.9-0.4-1.8-1.6-2.8-2-6.7-3.8-9.6-3.4-5.7-8.4-10.6-14.1-13.9-4.4-2.6-9-4.3-14.2-3.7-2.7 0.3-12.9 2.6-14.2 5.7 0.4-1-1.1-1.4-1.5-0.4z"/><path class="i" d="m562.6 202c-6.2 6-14.3 9.4-22.2 12.6-5.8 2.4-11.9 4.7-18.1 4-6.2-0.8-12.3-5.9-11.8-12.1 0.3-4.6 4-8.3 8.2-10 4.2-1.7 8.9-1.6 13.5-1.5 12.7 0.5 25.5 2 38 4.6"/><path class="i" d="m562 201.4c-6.4 5.7-13.9 9.3-21.8 12.4-2.9 1.2-5.8 2.5-8.9 3.1q-6.7 2.1-13.7-0.7-9.3-16 1.8-18.8c6.3-3.5 17.2-1.5 24.2-0.9 8.9 0.8 17.7 2.2 26.4 3.9 1 0.2 1.4-1.3 0.4-1.5-10.5-2.1-65.6-14.8-60.5 10.3 4.8 23.6 44.2 1.4 53.3-6.7 0.7-0.6-0.4-1.8-1.2-1.1z"/><path class="d" d="m604.3 322.6l-9.6 64.9-7.1 106.7 9.5 5.2 2.4-5.5 18-75.4 15.1-52.7 4-28.7z"/><path class="d" d="m589.5 498l-2.2 2c0 0-4.3 9.1-2.6 10.2 1.7 1.1 6.2-8.9 6.2-8.9z"/><path class="e" d="m602.4 305.8c0 0-7.4 17.7-7.4 20.8 0 3.1-3.4 31.9-3.4 31.9l47.5-4 1.2-34.7z"/><path class="e" d="m515.8 358.5l-22.4-6.7c0 0 9.2-31.5 12.1-36.3 4.1-6.7 24.5-12.9 24.5-12.9l-10.6 30.6z"/><path class="c" d="m649.5 439.8l-12.9-31.2-13-11.2-2.3 7.9c10.7 11.3 28.2 34.5 28.2 34.5z"/><path class="c" d="m597.6 358c0 0 4.3-27.6 6.7-35.4 2.4-7.7 11.7-27.6 11.7-27.6l-6.1-2.1-11.7 25.8c0 0-6.6 29.4-6.6 34.6 0 3.7 3.1 15.3 4.9 21.8l2.1-14z"/><path class="i" d="m532.5 767.4l28.8-4.9v61.5l-50.2 4.3c0 0-1.9-17.6 10.4-20.6 14.6-3.5 17.9 2.3 17.9 2.3z"/><path class="i" d="m604.2 767.4l28.8-4.9 3.1 62.3-53.3 3.5c0 0-1.8-17.6 10.5-20.6 14.6-3.5 20 2.3 20 2.3z"/><path class="q" d="m597.6 358l35.9 1.7 0.7-4.8z"/></svg>
